<svg width="2094" height="956" viewBox="0 0 2094 956" fill="none" xmlns="http://www.w3.org/2000/svg">
<mask id="mask0_86_131" style="mask-type:alpha" maskUnits="userSpaceOnUse" x="0" y="0" width="2094" height="956">
<path d="M0 956L2094 0V956H0Z" fill="#007BFB"/>
</mask>
<g mask="url(#mask0_86_131)">
<path d="M542.828 2098.94C101.874 1829.26 -27.2334 1287.14 -40.2583 793.622C-42.4391 711.247 -56.7196 625.12 -21.9209 550.622C12.9071 476.147 101.293 421.339 177.103 451.537C239.982 476.592 270.917 546.004 308.672 602.673C359.101 678.251 429.895 738.058 512.891 775.196C566.961 799.201 632.828 811.903 682.86 780.284C751.508 736.877 753.959 638.406 748.51 556.657C738.337 404.313 728.173 251.981 718.019 99.6582C712.566 17.9328 707.283 -65.5431 728.055 -144.682C748.83 -223.819 800.753 -299.299 877.322 -325.786C953.921 -352.26 1052.95 -313.222 1074.23 -234.18C1083.09 -201.289 1078.39 -166.302 1082.71 -132.508C1087.04 -98.6961 1105.14 -62.0988 1138 -54.589C1171.26 -46.9698 1202.63 -72.1274 1225.65 -97.5353C1305.19 -185.184 1356.11 -294.993 1403.31 -403.99C1450.52 -512.986 1496 -624.399 1567.25 -719.067C1638.49 -813.734 1740.25 -891.484 1857.12 -905.187C1974 -918.878 2103.31 -854.133 2139.89 -740.965C2176.57 -627.477 2116.29 -506.463 2048.64 -408.74C1948.3 -263.762 1827.49 -134.032 1689.97 -23.5736C1665.27 -3.72226 1638.48 17.7317 1630.45 48.6122C1615.95 104.198 1670.95 155.218 1725.93 169.889C1788.2 186.511 1854.04 176.19 1918.34 179.849C1982.64 183.507 2053.51 207.458 2081.3 266.261C2119.89 347.813 2055.19 439.632 1989.79 501.155C1858.76 624.395 1707.46 724.198 1542.53 796.194C1483.63 821.83 1421.4 844.962 1375.38 890.142C1329.36 935.349 1304.49 1010.59 1337.31 1066.41C1370.16 1122.3 1446.6 1136.19 1508.99 1120.69C1571.35 1105.22 1625.78 1067.6 1684.53 1041.33C1794.5 992.135 1940.28 991.122 2018.24 1083.89C2069.46 1144.87 2079.01 1233.51 2059.64 1311.04C2040.3 1388.58 1995.66 1457.05 1947.72 1520.6C1780.13 1742.76 1559.53 1926.78 1303.94 2032.9C1048.38 2139.01 807.978 2178.05 542.828 2098.94" fill="#016FE1"/>
<path d="M650.53 1778.15C716.025 1505.53 797.141 1236.91 893.479 973.587C918.642 903.491 943.486 834.282 968.008 765.958C992.626 697.873 1017.03 630.341 1044.99 565.775C1098.91 441.894 1159.66 321.092 1226.95 203.925C1290.4 91.6226 1354.71 -12.6318 1415.54 -109.672C1476.62 -206.63 1535.24 -295.925 1592.16 -375.031C1681.34 -500.341 1780.35 -618.373 1888.25 -728.01C1926.34 -766.814 1956.87 -795.935 1977.84 -815.396C1987.94 -824.645 1995.85 -831.917 2001.82 -837.385C2004.43 -840.001 2007.28 -842.376 2010.33 -844.48C2008.12 -841.503 2005.62 -838.745 2002.88 -836.247C1997.17 -830.511 1989.57 -822.885 1979.93 -813.183C1959.68 -793.014 1929.82 -763.235 1892.41 -723.873C1786.46 -612.935 1688.98 -494.222 1600.78 -368.731C1544.58 -289.453 1486.6 -200.033 1426.09 -102.924C1365.76 -5.64862 1301.94 98.682 1238.96 210.881C1172.29 327.785 1112.06 448.238 1058.53 571.702C1030.81 635.956 1006.69 702.913 982.06 771.182C957.587 839.414 932.778 908.594 907.632 978.723C811.51 1241.52 730.173 1509.48 664.003 1781.34" fill="#2791FF"/>
<path d="M2088.48 304.669C2074.87 308.554 2060.93 311.135 2046.85 312.379C2020.02 316.494 1981.17 322.228 1933.4 330.893C1837.75 347.432 1706.39 375.009 1562.78 411.909C1419.18 449.083 1290.64 488.366 1198.47 519.524C1152.25 534.769 1115.19 548.137 1089.51 557.22C1076.46 562.769 1062.93 567.056 1049.09 570.025C1061.27 562.646 1074.11 556.458 1087.43 551.541C1112.53 540.721 1149.14 525.739 1195.04 509.088C1286.59 475.175 1415.1 434.09 1559.12 396.782C1681.97 364.719 1806.34 339.098 1931.75 320.02C1979.89 312.727 2019.07 308.618 2046.2 306.371C2060.21 304.436 2074.37 303.866 2088.48 304.669Z" fill="#2791FF"/>
<path d="M1576.6 942.64C1520.17 908.132 1503.65 838.762 1501.99 775.611C1501.71 765.071 1499.88 754.05 1504.33 744.517C1508.79 734.987 1520.1 727.974 1529.8 731.838C1537.85 735.044 1541.8 743.926 1546.64 751.178C1553.09 760.849 1562.15 768.501 1572.77 773.254C1579.69 776.325 1588.11 777.951 1594.52 773.905C1603.3 768.35 1603.61 755.75 1602.92 745.289C1601.62 725.796 1600.32 706.303 1599.02 686.812C1598.32 676.354 1597.64 665.673 1600.3 655.546C1602.96 645.42 1609.6 635.761 1619.4 632.372C1629.2 628.984 1641.87 633.98 1644.6 644.094C1645.73 648.303 1645.13 652.78 1645.68 657.104C1646.24 661.431 1648.55 666.113 1652.76 667.074C1657.01 668.049 1661.03 664.83 1663.97 661.579C1674.15 650.364 1680.67 636.312 1686.71 622.365C1692.75 608.418 1698.57 594.162 1707.68 582.048C1716.8 569.934 1729.82 559.985 1744.77 558.232C1759.73 556.48 1776.28 564.765 1780.96 579.246C1785.65 593.768 1777.94 609.253 1769.28 621.757C1756.44 640.309 1740.98 656.909 1723.39 671.043C1720.23 673.583 1716.8 676.329 1715.77 680.28C1713.92 687.393 1720.95 693.921 1727.99 695.799C1735.96 697.926 1744.38 696.605 1752.61 697.073C1760.84 697.541 1769.91 700.606 1773.46 708.13C1778.4 718.566 1770.12 730.315 1761.75 738.187C1744.98 753.957 1725.62 766.728 1704.52 775.941C1696.98 779.221 1689.02 782.181 1683.13 787.962C1677.24 793.747 1674.06 803.375 1678.26 810.517C1682.46 817.669 1692.24 819.447 1700.23 817.463C1708.21 815.483 1715.17 810.67 1722.69 807.308C1736.76 801.013 1755.42 800.884 1765.39 812.754C1771.95 820.557 1773.17 831.899 1770.69 841.82C1768.21 851.742 1762.5 860.503 1756.37 868.636C1734.92 897.063 1706.7 920.611 1673.99 934.189C1641.29 947.767 1610.53 952.763 1576.6 942.64" fill="#D3D3D3"/>
<path d="M1590.38 901.591C1598.76 866.708 1609.14 832.334 1621.47 798.64C1624.69 789.67 1627.87 780.814 1631 772.072C1634.15 763.359 1637.28 754.718 1640.86 746.456C1647.75 730.604 1655.53 715.147 1664.14 700.154C1672.26 685.784 1680.49 672.443 1688.27 660.026C1696.09 647.619 1703.59 636.193 1710.87 626.071C1722.28 610.036 1734.95 594.933 1748.76 580.903C1753.63 575.938 1757.54 572.212 1760.22 569.722C1761.51 568.538 1762.53 567.608 1763.29 566.908C1763.63 566.573 1763.99 566.269 1764.38 566C1764.1 566.381 1763.78 566.734 1763.43 567.054C1762.7 567.788 1761.72 568.763 1760.49 570.005C1757.9 572.586 1754.08 576.396 1749.29 581.433C1735.73 595.629 1723.26 610.819 1711.97 626.877C1704.78 637.021 1697.36 648.463 1689.62 660.89C1681.9 673.337 1673.73 686.687 1665.68 701.044C1657.14 716.003 1649.44 731.416 1642.59 747.215C1639.04 755.437 1635.95 764.004 1632.8 772.74C1629.67 781.471 1626.5 790.323 1623.28 799.297C1610.98 832.924 1600.57 867.212 1592.1 902" fill="#E0E0E0"/>
<path d="M1774.38 713.045C1772.64 713.542 1770.85 713.872 1769.05 714.032C1765.62 714.558 1760.65 715.292 1754.54 716.401C1742.3 718.517 1725.49 722.046 1707.11 726.768C1688.74 731.524 1672.29 736.551 1660.49 740.538C1654.58 742.489 1649.84 744.199 1646.55 745.362C1644.88 746.072 1643.15 746.62 1641.38 747C1642.94 746.056 1644.58 745.264 1646.29 744.635C1649.5 743.25 1654.18 741.333 1660.06 739.202C1671.77 734.863 1688.21 729.606 1706.64 724.832C1722.36 720.729 1738.28 717.451 1754.32 715.009C1760.48 714.076 1765.5 713.55 1768.97 713.263C1770.76 713.015 1772.57 712.942 1774.38 713.045Z" fill="#E0E0E0"/>
<path d="M1767.38 831C1766.84 831.353 1766.26 831.633 1765.65 831.833C1764.29 832.383 1762.61 833.057 1760.57 833.875C1755.88 835.708 1749.54 838.183 1741.84 841.19C1726.02 847.371 1704.26 856.157 1680.24 865.897C1656.21 875.645 1634.36 884.239 1618.4 890.095C1610.43 893.025 1603.95 895.331 1599.44 896.833C1597.36 897.514 1595.64 898.074 1594.24 898.534C1593.64 898.773 1593.02 898.93 1592.38 899C1592.92 898.647 1593.5 898.365 1594.11 898.163C1595.47 897.617 1597.15 896.944 1599.19 896.126C1603.88 894.292 1610.21 891.821 1617.92 888.81C1633.74 882.632 1655.5 873.843 1679.53 864.099C1703.55 854.355 1725.4 845.762 1741.35 839.906C1749.33 836.975 1755.81 834.669 1760.32 833.167C1762.4 832.486 1764.12 831.922 1765.52 831.467C1766.12 831.227 1766.74 831.07 1767.38 831V831Z" fill="#E0E0E0"/>
<path d="M1285.7 144.065C1284.89 123.475 1269.27 103.021 1248.76 101.281C1236.65 100.254 1224.6 105.622 1215.57 113.781C1212.38 116.526 1209.41 119.51 1206.67 122.705C1205.26 118.741 1203.55 114.889 1201.56 111.183C1196.05 100.332 1186.72 91.0005 1175.04 87.6188C1155.27 81.8937 1133.37 95.393 1125.24 114.329C1117.12 133.265 1120.67 155.592 1129.85 174.034C1139.03 192.475 1155.46 216.955 1188.31 231.185C1211.88 230.159 1244.85 212.086 1260.02 198.158C1275.19 184.23 1286.5 164.656 1285.7 144.065Z" fill="#007BFB"/>
<path d="M1275.23 180.063C1275 180.077 1274.77 180.059 1274.55 180.01L1272.58 179.716C1270.75 179.408 1268.23 178.985 1265.04 178.45C1258.39 177.27 1248.96 175.597 1237.36 173.539L1237.89 173.272C1233.78 181.768 1228.98 191.717 1223.71 202.627L1222.86 204.397L1222.56 202.451C1220.26 187.432 1217.68 170.602 1214.96 152.869C1214.13 147.38 1213.31 141.978 1212.51 136.704L1213.67 137.038C1205.21 146.835 1197.2 156.105 1189.91 164.552L1189.68 164.816L1189.34 164.751C1169.47 160.965 1152.7 157.768 1140.76 155.495C1134.95 154.343 1130.32 153.426 1127.02 152.773C1125.51 152.454 1124.31 152.2 1123.39 152.005C1122.97 151.938 1122.56 151.828 1122.16 151.676C1122.58 151.679 1123.01 151.724 1123.43 151.813C1124.35 151.961 1125.57 152.154 1127.09 152.397C1130.4 152.97 1135.05 153.774 1140.89 154.785C1152.85 156.941 1169.65 159.972 1189.56 163.562L1189 163.762C1196.26 155.29 1204.23 145.994 1212.66 136.169L1213.6 135.07L1213.82 136.504C1214.63 141.777 1215.45 147.179 1216.29 152.667C1218.96 170.407 1221.5 187.242 1223.77 202.267L1222.61 202.09C1227.96 191.22 1232.84 181.308 1237.01 172.843L1237.17 172.506L1237.54 172.576C1249.11 174.814 1258.51 176.633 1265.14 177.917C1268.31 178.56 1270.81 179.069 1272.63 179.439C1273.42 179.613 1274.05 179.755 1274.57 179.869C1274.8 179.904 1275.02 179.969 1275.23 180.063Z" fill="#FAFAFA"/>
<path d="M1696.41 366.328H1681.01V435.323H1696.41V366.328Z" fill="#EBEBEB"/>
<path d="M1654.21 393.128V408.524H1723.21V393.128H1654.21Z" fill="#EBEBEB"/>
<path d="M1746.01 400.992C1745.95 400.685 1745.91 400.374 1745.9 400.061C1745.85 399.389 1745.79 398.486 1745.7 397.334C1745.66 396.729 1745.62 396.06 1745.57 395.327C1745.49 394.592 1745.33 393.795 1745.2 392.929C1744.93 390.928 1744.53 388.949 1743.98 387.007C1742.63 381.644 1740.47 376.516 1737.59 371.797C1730.78 360.413 1720.22 351.759 1707.71 347.325C1695.21 342.891 1681.56 342.954 1669.1 347.503C1663.92 349.317 1659.06 351.935 1654.69 355.259C1650.05 358.6 1645.98 362.685 1642.66 367.349C1639.13 372.105 1636.38 377.399 1634.53 383.029C1630.62 394.681 1630.62 407.291 1634.53 418.944C1636.38 424.575 1639.12 429.872 1642.66 434.629C1645.98 439.294 1650.04 443.38 1654.69 446.723C1659.06 450.048 1663.92 452.666 1669.1 454.481C1681.56 459.001 1695.21 459.049 1707.7 454.617C1720.2 450.185 1730.76 441.547 1737.59 430.184C1740.47 425.465 1742.63 420.337 1743.98 414.974C1744.53 413.032 1744.93 411.054 1745.2 409.054C1745.33 408.187 1745.49 407.391 1745.57 406.656C1745.62 405.923 1745.66 405.254 1745.7 404.649C1745.79 403.497 1745.85 402.594 1745.9 401.922C1745.91 401.609 1745.95 401.298 1746.01 400.992C1746.04 401.301 1746.05 401.613 1746.02 401.924C1746 402.6 1745.98 403.507 1745.95 404.664L1745.87 406.685C1745.81 407.426 1745.67 408.229 1745.55 409.104C1745.33 411.124 1744.96 413.125 1744.44 415.09C1743.16 420.528 1741.04 425.736 1738.17 430.531C1734 437.61 1728.36 443.718 1721.65 448.451C1714.93 453.183 1707.28 456.431 1699.21 457.978C1689.01 459.9 1678.48 459.056 1668.72 455.533C1663.43 453.695 1658.46 451.037 1654 447.655C1649.25 444.252 1645.1 440.089 1641.7 435.333C1638.08 430.48 1635.27 425.074 1633.38 419.325C1629.38 407.426 1629.38 394.545 1633.38 382.648C1635.28 376.9 1638.09 371.496 1641.7 366.645C1645.1 361.891 1649.26 357.729 1654 354.327C1658.47 350.946 1663.43 348.288 1668.72 346.451C1678.48 342.928 1689.01 342.083 1699.2 344.005C1707.28 345.551 1714.92 348.799 1721.64 353.531C1728.36 358.263 1734 364.371 1738.17 371.449C1741.04 376.245 1743.15 381.453 1744.44 386.892C1744.96 388.857 1745.33 390.858 1745.55 392.878C1745.67 393.753 1745.81 394.556 1745.87 395.297L1745.95 397.319C1745.98 398.476 1746 399.383 1746.02 400.059C1746.05 400.37 1746.04 400.682 1746.01 400.992V400.992Z" fill="#EBEBEB"/>
</g>
</svg>
