<svg width="635" height="768" viewBox="0 0 635 768" fill="none" xmlns="http://www.w3.org/2000/svg">
<path d="M5.05971 234.152L185.621 147.24C186.963 146.594 188.506 146.508 189.912 147C191.317 147.492 192.47 148.523 193.116 149.865L314.322 401.673C314.968 403.015 315.055 404.559 314.563 405.964C314.07 407.37 313.04 408.523 311.698 409.169L131.137 496.081C129.795 496.727 128.252 496.813 126.846 496.321C125.441 495.829 124.288 494.798 123.642 493.456L2.43546 241.648C1.78954 240.306 1.70315 238.762 2.19529 237.356C2.68743 235.951 3.71778 234.798 5.0597 234.152L5.05971 234.152Z" fill="#E0E0E0"/>
<path d="M182.719 155.511L13.3337 237.043L130.691 480.855L300.076 399.323L182.719 155.511Z" fill="#FAFAFA"/>
<path d="M134.015 183.795C130.663 181.178 126.656 179.556 122.443 179.111C118.231 178.666 113.979 179.416 110.164 181.277L105.024 170.966C104.132 169.093 102.884 167.415 101.351 166.029C99.8171 164.643 98.0287 163.577 96.0875 162.889C94.1462 162.202 92.09 161.908 90.0364 162.025C87.9828 162.141 85.9719 162.665 84.1186 163.567H84.1183C80.3754 165.388 77.5015 168.638 76.1287 172.601C74.756 176.564 74.997 180.917 76.7986 184.7L81.9532 195.525L78.3824 197.336C74.6475 199.23 71.4991 202.125 69.281 205.705C67.0628 209.285 65.8601 213.412 65.8042 217.636L65.7332 223L138.733 187.479L134.015 183.795ZM95.0525 185.476C93.55 186.207 91.8668 186.471 90.2158 186.235C88.5647 185.999 87.0199 185.274 85.7768 184.15C84.5336 183.027 83.6479 181.556 83.2317 179.924C82.8155 178.291 82.8875 176.571 83.4385 174.98C83.9896 173.389 84.9949 171.999 86.3274 170.985C87.66 169.972 89.2598 169.381 90.9247 169.287C92.5896 169.193 94.2447 169.6 95.6808 170.456C97.1169 171.313 98.2694 172.581 98.9926 174.1C99.4728 175.108 99.7518 176.202 99.8137 177.32C99.8756 178.437 99.7191 179.556 99.3532 180.613C98.9874 181.669 98.4192 182.642 97.6813 183.477C96.9434 184.311 96.0502 184.99 95.0525 185.476Z" fill="#EBEBEB"/>
<path d="M92.7316 241.014C92.8773 241.314 82.6979 246.476 69.998 252.543C57.2938 258.612 46.8804 263.287 46.7347 262.986C46.589 262.686 56.7665 257.525 69.4704 251.456C82.1703 245.389 92.5861 240.713 92.7316 241.014Z" fill="#E0E0E0"/>
<path d="M72.7332 261C69.3541 263.166 65.7575 265.013 61.9954 266.513C58.4063 268.354 54.634 269.857 50.7332 271C54.1126 268.834 57.7096 266.987 61.4721 265.486C65.061 263.646 68.8328 262.143 72.7332 261Z" fill="#E0E0E0"/>
<path d="M190.733 230.005C190.878 230.309 162.34 244.434 127 261.55C91.647 278.671 62.8793 292.299 62.7337 291.995C62.5881 291.69 91.1197 277.569 126.472 260.447C161.813 243.332 190.587 229.701 190.733 230.005Z" fill="#E0E0E0"/>
<path d="M196.733 242.005C196.878 242.309 168.34 256.434 133 273.55C97.6472 290.671 68.8795 304.3 68.7337 303.995C68.588 303.691 97.1197 289.569 132.473 272.447C167.813 255.332 196.587 241.7 196.733 242.005Z" fill="#E0E0E0"/>
<path d="M202.733 255.005C202.878 255.304 174.34 269.201 139 286.041C103.647 302.886 74.8795 316.295 74.7337 315.995C74.5879 315.695 103.12 301.801 138.473 284.956C173.813 268.117 202.587 254.706 202.733 255.005Z" fill="#E0E0E0"/>
<path d="M208.733 267.005C208.878 267.304 180.341 281.201 145 298.041C109.647 314.886 80.8795 328.295 80.7337 327.995C80.5879 327.695 109.12 313.801 144.473 296.956C179.813 280.117 208.587 266.705 208.733 267.005Z" fill="#E0E0E0"/>
<path d="M214.733 279.005C214.878 279.304 186.34 293.201 151 310.041C115.647 326.886 86.8795 340.295 86.7337 339.995C86.5879 339.695 115.12 325.802 150.473 308.956C185.813 292.117 214.587 278.706 214.733 279.005Z" fill="#E0E0E0"/>
<path d="M220.733 291.005C220.878 291.309 192.34 305.434 157 322.55C121.647 339.671 92.8795 353.299 92.7337 352.995C92.5879 352.69 121.12 338.569 156.473 321.447C191.813 304.332 220.587 290.7 220.733 291.005Z" fill="#E0E0E0"/>
<path d="M161.733 333C160.986 333.568 160.176 334.048 159.321 334.433C157.495 335.375 155.229 336.545 152.547 337.93C146.804 340.834 138.834 344.771 129.999 349.051C121.16 353.332 113.13 357.145 107.292 359.85C104.543 361.096 102.222 362.148 100.35 362.997C99.5183 363.43 98.6403 363.766 97.7332 364C98.4808 363.433 99.2899 362.952 100.145 362.568C101.971 361.625 104.236 360.456 106.919 359.071C112.662 356.166 120.633 352.229 129.471 347.948C138.306 343.669 146.335 339.855 152.174 337.15C154.923 335.904 157.244 334.852 159.116 334.004C159.948 333.571 160.826 333.234 161.733 333Z" fill="#E0E0E0"/>
<path d="M181.733 197C178.684 199.205 175.419 201.067 171.991 202.555C168.733 204.41 165.294 205.9 161.733 207C164.782 204.795 168.048 202.933 171.476 201.445C174.734 199.59 178.172 198.1 181.733 197Z" fill="#E0E0E0"/>
<path d="M145.733 373C140.354 376.205 134.766 379.06 129.004 381.547C123.42 384.399 117.651 386.889 111.733 389C117.113 385.795 122.702 382.94 128.464 380.452C134.047 377.601 139.816 375.111 145.733 373Z" fill="#E0E0E0"/>
<path d="M151.733 384C146.349 387.196 140.76 390.048 134.999 392.538C129.415 395.387 123.647 397.88 117.733 400C123.117 396.804 128.708 393.951 134.469 391.461C140.053 388.613 145.82 386.121 151.733 384Z" fill="#E0E0E0"/>
<path d="M240.733 325C238.364 326.877 235.761 328.413 232.996 329.567C230.403 331.093 227.624 332.247 224.733 333C227.103 331.123 229.706 329.587 232.471 328.433C235.064 326.908 237.843 325.753 240.733 325Z" fill="#E0E0E0"/>
<path d="M246.733 335C244.216 336.877 241.451 338.413 238.512 339.566C235.758 341.092 232.804 342.247 229.733 343C232.251 341.123 235.016 339.587 237.955 338.433C240.709 336.908 243.662 335.753 246.733 335Z" fill="#E0E0E0"/>
<path d="M141.733 403C139.523 404.896 137.085 406.44 134.489 407.587C132.06 409.12 129.449 410.269 126.733 411C128.944 409.104 131.382 407.56 133.979 406.413C136.407 404.88 139.017 403.732 141.733 403Z" fill="#E0E0E0"/>
<path d="M252.733 346C249.131 348.765 245.06 350.8 240.733 352C244.335 349.235 248.406 347.2 252.733 346Z" fill="#E0E0E0"/>
<path d="M137.733 437.437C137.925 437.24 138.142 437.07 138.378 436.932L140.341 435.598C142.185 434.392 144.712 432.74 147.876 430.67C154.513 426.418 163.809 420.463 174.925 413.341L175.458 413L175.688 413.599C176.971 416.95 177.076 420.652 175.985 424.074C175.435 425.932 174.48 427.638 173.19 429.065C171.9 430.491 170.309 431.599 168.538 432.307C166.656 433.06 164.622 433.333 162.613 433.102C160.604 432.871 158.68 432.144 157.009 430.982C155.321 429.654 154.054 427.847 153.367 425.788C152.681 423.728 152.605 421.508 153.149 419.405C153.532 417.801 154.298 416.318 155.378 415.09C155.64 414.777 155.933 414.493 156.251 414.241C156.564 413.94 156.921 413.691 157.309 413.502C157.564 413.375 157.845 413.313 158.129 413.323C158.413 413.333 158.69 413.414 158.936 413.558C159.331 413.834 159.649 414.21 159.858 414.65C161.236 417.324 162.041 420.266 162.22 423.281C162.399 426.296 161.948 429.316 160.898 432.14C160 434.898 158.238 437.279 155.885 438.915C154.688 439.638 153.316 440.004 151.925 439.973C150.535 439.941 149.18 439.513 148.016 438.737C145.836 437.351 144.188 435.245 143.345 432.77C142.287 428.359 142.312 423.749 143.42 419.351L143.566 418.444L144.161 419.127C146.637 421.997 148.187 425.575 148.601 429.375C148.94 432.21 148.674 435.086 147.822 437.806C147.284 439.514 146.493 441.127 145.478 442.592C145.125 443.086 144.809 443.427 144.612 443.666C144.409 443.9 144.298 444.013 144.282 443.999C145.636 442.07 146.678 439.931 147.368 437.665C148.115 435.002 148.305 432.208 147.925 429.464C147.462 425.837 145.928 422.439 143.528 419.722L144.269 419.498C143.251 423.749 143.261 428.189 144.299 432.435C145.083 434.666 146.588 436.559 148.566 437.802C149.563 438.469 150.725 438.835 151.917 438.859C153.11 438.883 154.284 438.563 155.307 437.938C157.433 436.419 159.015 434.236 159.815 431.717C160.793 429.054 161.208 426.209 161.033 423.37C160.859 420.53 160.098 417.761 158.8 415.243C158.689 414.996 158.521 414.78 158.311 414.614C158.171 414.533 158.05 414.525 157.798 414.632C157.223 414.973 156.708 415.409 156.273 415.923C155.329 417.001 154.661 418.3 154.327 419.704C153.841 421.569 153.904 423.538 154.506 425.367C155.109 427.196 156.225 428.803 157.716 429.99C159.227 431.035 160.963 431.69 162.776 431.899C164.589 432.108 166.424 431.864 168.125 431.19C169.738 430.55 171.189 429.546 172.366 428.251C173.544 426.957 174.418 425.406 174.922 423.717C175.952 420.548 175.878 417.113 174.714 413.993L175.476 414.251C164.266 421.217 154.892 427.042 148.198 431.202C144.97 433.166 142.392 434.733 140.511 435.878C139.683 436.362 139.009 436.756 138.464 437.075C138.238 437.228 137.992 437.35 137.733 437.437Z" fill="#E0E0E0"/>
<path d="M258.733 378.353C258.712 379.112 258.583 379.865 258.351 380.585C258.128 381.476 257.778 382.326 257.312 383.108C256.652 384.204 255.63 385.013 254.437 385.383C253.705 385.606 252.923 385.579 252.207 385.306C251.449 384.982 250.791 384.449 250.303 383.764C249.362 382.305 248.505 380.789 247.735 379.226C246.008 375.953 244.096 372.33 242.04 368.433L243.083 368.182C242.899 373.638 242.698 379.592 242.487 385.83C242.432 387.315 242.378 388.784 242.325 390.228L242.235 392.69L241.199 390.477C238.067 383.791 235.145 377.553 232.595 372.107L233.546 372.011C232.113 377.418 231.38 383 231.365 388.608C231.359 392.669 231.631 394.985 231.499 395C231.319 394.469 231.207 393.914 231.169 393.352C230.96 391.782 230.827 390.202 230.771 388.618C230.57 382.93 231.172 377.242 232.56 371.735L232.902 370.367L233.511 371.639C236.106 377.062 239.079 383.275 242.265 389.932L241.138 390.181C241.189 388.738 241.242 387.269 241.295 385.783C241.535 379.546 241.764 373.594 241.974 368.139L242.056 366L243.017 367.887C245.017 371.815 246.877 375.466 248.557 378.766C249.277 380.302 250.075 381.798 250.948 383.246C251.283 383.822 251.784 384.272 252.38 384.533C252.976 384.795 253.637 384.853 254.267 384.7C255.178 384.372 255.997 383.813 256.65 383.075C257.302 382.337 257.768 381.442 258.006 380.471C258.198 379.747 258.441 379.039 258.733 378.353Z" fill="#E0E0E0"/>
<path d="M258.73 370.008C258.92 370.279 249.225 376.987 237.078 384.99C224.927 392.995 214.926 399.262 214.736 398.992C214.546 398.721 224.239 392.015 236.39 384.009C248.537 376.007 258.54 369.738 258.73 370.008Z" fill="#E0E0E0"/>
<path d="M473.809 71.2102C474.1 61.0528 464.704 53.2038 455.249 49.4832C445.793 45.7626 435.282 44.3593 426.852 38.6859C419.388 33.6619 414.372 25.8264 408.053 19.4212C400.258 11.5189 390.5 5.83326 379.781 2.94803C369.063 0.0628039 357.769 0.0818931 347.06 3.00336C336.351 5.92482 326.613 11.6434 318.844 19.5721C311.076 27.5008 305.557 37.354 302.854 48.1203C299.223 62.5868 301.702 79.6897 313.106 89.3032C326.34 100.46 345.961 97.982 362.919 94.5116C379.878 91.0417 399.07 87.6182 413.229 97.5763C421.768 103.582 426.662 113.351 431.881 122.392C437.1 131.433 443.651 140.664 453.523 144.063C463.393 147.461 476.796 141.593 477.181 131.16" fill="#263238"/>
<path d="M473.125 76.7857C472.007 85.2997 478.169 92.9225 484.301 98.9336C490.434 104.945 497.364 111.32 498.446 119.838C499.711 129.788 492.447 139.588 494.554 149.394C495.892 155.62 500.733 160.414 503.669 166.065C507.581 174.216 508.228 183.554 505.477 192.167C502.949 200.742 498.921 219.89 492.96 226.553C476.478 244.979 450.235 260.882 426.14 266.417C402.045 271.952 377.019 271.985 352.343 270.467C332.142 269.224 308.913 270.153 292.08 242.362C283.361 227.969 279.042 208.83 274.408 192.653C270.418 178.724 266.968 163.807 271.116 149.924C273.532 141.835 278.399 134.644 280.781 126.545C283.758 116.428 282.673 105.608 283.871 95.1289C285.174 83.7332 289.177 72.813 295.549 63.2757C301.921 53.7384 310.477 45.8594 320.506 40.2936C330.535 34.7277 341.747 31.6357 353.211 31.2745C364.675 30.9132 376.06 33.2931 386.42 38.2165" fill="#263238"/>
<path d="M293.536 111.694C295.427 82.7062 314.714 47.1769 343.596 50.2966L433.75 73.2961C437.983 73.7531 441.889 75.7813 444.698 78.9799C447.507 82.1784 449.014 86.3144 448.921 90.5703L438.786 308.069C439 308.116 439.195 308.159 439.41 308.205C439.41 308.205 418.862 369.553 359.247 350.812C347.426 347.096 342.029 334.165 339.685 320.866L339.075 320.943C339.052 319.363 339.032 317.894 339.012 316.386C337.847 306.471 337.728 296.46 338.657 286.519C338.49 268.959 338.508 261.757 338.497 261.92C338.497 261.92 301.471 255.689 293.904 207.345C290.141 183.303 291.435 143.9 293.536 111.694Z" fill="#FFBE9D"/>
<path d="M308.057 140.819C308.037 142.435 308.65 143.994 309.764 145.165C310.878 146.335 312.405 147.025 314.019 147.086C314.808 147.15 315.601 147.056 316.352 146.809C317.104 146.562 317.798 146.168 318.395 145.648C318.991 145.129 319.478 144.495 319.826 143.785C320.174 143.074 320.376 142.302 320.42 141.512C320.44 139.897 319.828 138.338 318.716 137.168C317.604 135.997 316.079 135.306 314.465 135.242C313.676 135.178 312.882 135.271 312.13 135.518C311.377 135.765 310.682 136.16 310.085 136.68C309.488 137.199 309.001 137.833 308.652 138.544C308.304 139.255 308.101 140.029 308.057 140.819Z" fill="#263238"/>
<path d="M302.039 132.212C302.805 133.022 307.509 129.558 314.178 129.59C320.84 129.527 325.728 132.969 326.453 132.154C326.809 131.793 326.029 130.333 323.902 128.776C321.021 126.769 317.589 125.703 314.078 125.724C310.609 125.704 307.224 126.788 304.414 128.82C302.36 130.389 301.661 131.85 302.039 132.212Z" fill="#263238"/>
<path d="M373.612 140.82C373.593 142.435 374.206 143.994 375.319 145.165C376.433 146.335 377.96 147.025 379.574 147.086C380.363 147.15 381.156 147.056 381.907 146.809C382.659 146.562 383.353 146.167 383.949 145.648C384.546 145.129 385.032 144.495 385.38 143.785C385.728 143.075 385.93 142.302 385.975 141.512C385.994 139.897 385.383 138.338 384.27 137.167C383.158 135.996 381.632 135.306 380.019 135.242C379.23 135.178 378.436 135.271 377.684 135.518C376.931 135.765 376.236 136.16 375.639 136.68C375.042 137.2 374.555 137.834 374.207 138.545C373.859 139.256 373.657 140.029 373.612 140.82Z" fill="#263238"/>
<path d="M367.592 133.602C368.361 134.412 373.069 130.948 379.734 130.981C386.396 130.917 391.284 134.359 392.009 133.544C392.363 133.183 391.592 131.724 389.456 130.167C386.576 128.159 383.144 127.092 379.633 127.113C376.165 127.094 372.78 128.179 369.968 130.21C367.92 131.779 367.217 133.24 367.592 133.602Z" fill="#263238"/>
<path d="M343.28 183.009C343.311 182.63 339.168 181.905 332.451 181.03C330.749 180.85 329.138 180.509 328.853 179.346C328.713 177.587 329.113 175.826 330.001 174.301C331.612 170.183 333.3 165.864 335.067 161.344C342.101 142.896 347.198 127.725 346.453 127.449C345.707 127.172 339.399 141.9 332.365 160.348C330.672 164.897 329.054 169.242 327.512 173.383C326.436 175.435 326.117 177.801 326.613 180.065C326.859 180.666 327.238 181.203 327.723 181.636C328.207 182.068 328.783 182.385 329.408 182.561C330.351 182.819 331.322 182.956 332.3 182.969C339.059 183.348 343.254 183.388 343.28 183.009Z" fill="#263238"/>
<path d="M338.497 261.921C361.253 262.318 383.671 256.391 403.257 244.8C403.257 244.8 386.91 278.218 338.552 273.589L338.497 261.921Z" fill="#EB996E"/>
<path d="M346.064 199.089C347.337 197.494 348.995 196.25 350.881 195.473C352.768 194.697 354.821 194.413 356.847 194.649C358.319 194.785 359.747 195.216 361.048 195.917C362.348 196.619 363.493 197.576 364.415 198.73C365.305 199.843 365.831 201.203 365.922 202.625C366.013 204.047 365.666 205.463 364.926 206.681C363.852 207.876 362.445 208.723 360.887 209.113C359.328 209.504 357.688 209.42 356.178 208.872C353.03 207.75 350.137 206.014 347.665 203.766C346.913 203.232 346.269 202.561 345.765 201.789C345.521 201.421 345.392 200.988 345.395 200.546C345.397 200.104 345.531 199.672 345.78 199.307" fill="#EB996E"/>
<path d="M362.896 187.666C361.812 187.601 361.782 194.84 355.574 199.964C349.378 205.106 341.662 204.276 341.604 205.287C341.502 205.742 343.319 206.698 346.576 206.793C350.816 206.862 354.946 205.434 358.237 202.759C361.395 200.188 363.43 196.49 363.912 192.446C364.195 189.421 363.391 187.625 362.896 187.666Z" fill="#263238"/>
<path d="M364.619 121.919C365.272 123.733 371.933 122.889 379.755 123.849C387.598 124.653 393.902 126.956 394.944 125.332C395.409 124.556 394.313 122.847 391.766 121.086C388.365 118.926 384.517 117.57 380.514 117.119C376.511 116.668 372.458 117.135 368.662 118.484C365.787 119.636 364.338 121.057 364.619 121.919Z" fill="#263238"/>
<path d="M304.534 112.916C305.703 114.433 310.301 112.872 315.826 112.809C321.348 112.554 326.027 113.85 327.108 112.268C327.582 111.499 326.847 109.981 324.807 108.542C322.064 106.818 318.871 105.947 315.633 106.04C312.395 106.133 309.257 107.186 306.618 109.065C304.662 110.617 304.018 112.176 304.534 112.916Z" fill="#263238"/>
<path d="M467.495 232.292C460.819 233.638 453.918 233.375 447.363 231.525C440.809 229.676 434.788 226.293 429.8 221.656C424.812 217.019 420.999 211.261 418.676 204.859C416.354 198.456 415.589 191.593 416.444 184.836C417.947 172.967 424.346 160.891 420.231 149.657C414.79 134.805 393.97 130.235 388.445 115.414C385.234 106.799 388.116 96.7224 384.476 88.2807C381.054 80.3419 372.702 75.7705 364.572 72.831C356.443 69.8916 347.726 67.8625 340.901 62.557C334.076 57.2515 329.819 47.2389 334.222 39.7996C370.316 44.1303 405.766 52.7437 439.824 65.4577C447.71 68.4035 455.995 71.9438 460.658 78.9538C465.592 86.3717 465.355 95.9559 464.94 104.855C462.916 148.248 460.891 191.641 458.866 235.035" fill="#263238"/>
<path d="M464.465 248.907C464.748 248.781 465.011 248.613 465.244 248.407C465.83 247.961 466.536 247.424 467.394 246.77C469.263 245.306 472.009 243.13 475.399 240.139C479.565 236.53 483.37 232.526 486.762 228.182C491.378 222.403 494.483 215.567 495.798 208.289C496.73 203.854 496.654 199.267 495.575 194.865C494.496 190.464 492.443 186.361 489.566 182.86C486.06 179.38 482.296 176.171 478.306 173.259C474.287 170.194 471.237 166.035 469.523 161.28C465.949 151.427 467.542 140.02 466.161 128.362C464.793 116.2 460.047 104.665 452.46 95.0625C448.542 90.2113 443.663 86.2234 438.129 83.3498C432.699 80.8812 427.033 78.9688 421.217 77.6418C415.808 76.2832 410.75 73.7905 406.377 70.3289C402.257 66.8843 398.632 62.8872 395.605 58.4509C389.535 49.8293 385.046 40.6419 379.264 32.9811C376.527 29.2244 373.327 25.8276 369.74 22.871C366.371 20.1673 362.548 18.0849 358.449 16.7214C354.952 15.3831 351.19 14.8797 347.464 15.2513C343.738 15.6229 340.15 16.8592 336.986 18.8617C334.757 20.5896 332.923 22.7745 331.608 25.2696C330.294 27.7647 329.528 30.5123 329.363 33.3278C329.064 36.8914 330.1 40.4389 332.27 43.2813C332.827 44.0072 333.491 44.6436 334.241 45.1684C334.732 45.5384 334.99 45.7102 335.011 45.6802C335.032 45.6503 334.816 45.419 334.38 45.0019C333.709 44.4192 333.115 43.7541 332.611 43.0224C330.679 40.2022 329.819 36.7838 330.187 33.3849C330.414 30.7258 331.198 28.1442 332.488 25.8083C333.779 23.4723 335.547 21.4344 337.678 19.8273C340.7 17.9983 344.106 16.8947 347.627 16.6029C351.148 16.3112 354.689 16.8393 357.971 18.1459C361.877 19.4972 365.513 21.529 368.711 24.1474C372.157 27.0477 375.227 30.368 377.849 34.0309C383.452 41.5667 387.853 50.7315 394.006 59.5797C397.117 64.1832 400.852 68.3324 405.104 71.9084C409.675 75.5539 414.967 78.1884 420.631 79.6383C426.315 80.9463 431.854 82.8197 437.165 85.2303C442.438 87.9789 447.088 91.7862 450.822 96.414C458.152 105.709 462.748 116.861 464.096 128.621C465.502 139.892 463.871 151.471 467.685 161.951C469.543 167.016 472.816 171.44 477.115 174.698C481.053 177.532 484.775 180.652 488.253 184.034C490.989 187.332 492.953 191.2 494.002 195.354C495.051 199.509 495.158 203.846 494.316 208.047C493.117 215.121 490.196 221.792 485.811 227.471C482.532 231.817 478.86 235.853 474.843 239.528C471.557 242.595 468.899 244.871 467.121 246.441C466.174 247.194 465.286 248.018 464.465 248.907Z" fill="#455A64"/>
<path d="M473.287 254.902C483.221 245.299 500.192 253.648 508.529 264.667C516.865 275.685 522.773 289.887 535.43 295.428C548.08 300.967 564.549 296.204 575.173 305.028C589.82 317.195 581.595 345.394 597.43 355.97C603.717 360.169 612.008 360.02 618.728 363.484C634.563 371.649 634.375 393.986 631.928 411.633C628.494 436.397 624.731 462.068 611.066 483.004C597.4 503.939 570.797 518.67 547.137 510.592C524.4 502.829 512.729 478.294 503.481 456.119C490.685 425.439 477.889 394.759 465.093 364.079C457.69 346.332 450.215 328.315 447.805 309.237C445.394 290.158 448.637 269.554 460.769 254.634" fill="#263238"/>
<path d="M479.657 233.741C486.878 232.872 492.385 241.715 490.485 248.736C488.586 255.757 481.846 260.439 474.98 262.838C471.18 264.349 467.047 264.827 463.002 264.222C460.989 263.894 459.095 263.049 457.505 261.77C455.916 260.491 454.685 258.822 453.933 256.925C453.182 255.281 453.109 253.407 453.73 251.71C454.352 250.013 455.617 248.629 457.253 247.859C462.002 244.89 464.786 242.556 468.532 240.49C474.265 237.328 473.924 236.903 479.657 233.741Z" fill="#007BFB"/>
<path d="M313.557 311.508L341.599 290.261L447.243 283.508L451.494 297.676L417.13 512.113L444.239 767.951H296.853L313.557 311.508Z" fill="#007BFB"/>
<g opacity="0.3">
<path d="M426.677 677.188C423.308 673.59 417.779 668.638 412.852 668.529C377.565 667.752 341.516 664.225 306.229 663.448L303.405 767.999C311.847 753.116 319.834 737.63 322.058 720.665C323.029 713.254 324.273 704.398 331.039 701.224C334.867 699.428 339.349 700.131 343.497 700.951C356.244 703.471 368.906 706.764 381.874 707.57C394.843 708.376 408.415 706.485 419.307 699.401C423.177 697.126 426.291 693.762 428.261 689.729C429.208 687.702 429.562 685.449 429.282 683.229C429.001 681.01 428.098 678.915 426.677 677.188Z" fill="black"/>
</g>
<path d="M336.411 315.832L333.144 285.17C333.008 283.887 333.128 282.591 333.497 281.355C333.867 280.119 334.478 278.969 335.297 277.973C336.115 276.976 337.123 276.151 338.263 275.548C339.403 274.945 340.652 274.574 341.936 274.458L439.193 265.669C439.817 265.613 440.445 265.684 441.04 265.88C441.635 266.076 442.184 266.391 442.652 266.806C443.121 267.221 443.499 267.728 443.765 268.295C444.03 268.863 444.177 269.478 444.196 270.104L445.292 306.584L417.13 354.373L388.181 363.585H352.786L332.426 341.845L336.411 315.832Z" fill="#007BFB"/>
<path d="M430.934 294.886C430.915 294.985 429.541 294.741 427.045 294.487C423.522 294.153 419.978 294.093 416.445 294.308C411.206 294.661 406.001 295.41 400.875 296.549C395.066 297.768 388.753 299.479 382.064 301.106C375.781 302.744 369.378 303.884 362.915 304.515C357.6 305.016 352.239 304.654 347.04 303.443C343.538 302.61 340.194 301.22 337.133 299.326C336.311 298.804 335.52 298.233 334.766 297.617C334.259 297.183 334.007 296.941 334.033 296.908C334.098 296.824 335.197 297.689 337.375 298.919C340.466 300.62 343.788 301.862 347.236 302.607C352.359 303.675 357.617 303.943 362.822 303.4C369.218 302.709 375.554 301.548 381.778 299.925C388.444 298.305 394.785 296.621 400.648 295.453C405.837 294.353 411.107 293.683 416.405 293.45C419.982 293.307 423.563 293.498 427.104 294.018C428.353 294.224 429.318 294.41 429.962 294.58C430.3 294.63 430.628 294.733 430.934 294.886Z" fill="#263238"/>
<g opacity="0.3">
<path d="M338.731 299.703C336.127 306.862 336.052 315.729 341.336 321.216C345.642 325.689 352.556 326.808 358.645 325.592C364.669 324.036 370.386 321.469 375.551 317.999C388.939 310.03 402.543 301.782 417.752 298.402C418.75 298.28 419.695 297.886 420.484 297.263C420.67 297.1 420.821 296.901 420.927 296.678C421.033 296.455 421.091 296.213 421.1 295.966C421.108 295.719 421.065 295.473 420.975 295.244C420.884 295.014 420.747 294.805 420.572 294.631C420.192 294.402 419.757 294.277 419.313 294.269C405.862 292.92 392.508 296.723 379.318 299.685C366.127 302.646 352.044 304.741 339.327 300.153" fill="black"/>
</g>
<path d="M357.308 273.473C355.94 274.223 354.792 275.32 353.981 276.654C352.446 279.119 352.529 283.304 352.652 287.828C352.902 296.904 354.4 304.159 354.045 304.232C353.37 302.745 352.926 301.164 352.728 299.543C351.982 295.692 351.55 291.786 351.438 287.865C351.35 285.697 351.395 283.527 351.57 281.364C351.705 279.533 352.282 277.762 353.251 276.202C353.921 275.149 354.871 274.303 355.996 273.76C356.798 273.403 357.294 273.406 357.308 273.473Z" fill="#263238"/>
<path d="M383.007 300.131C383.031 295.174 382.798 290.219 382.31 285.287C381.407 280.412 380.253 275.588 378.852 270.833C379.738 272.024 380.411 273.36 380.841 274.782C383.396 281.47 384.415 288.648 383.82 295.784C383.803 297.269 383.528 298.74 383.007 300.131Z" fill="#263238"/>
<path d="M414.315 268.262C415.192 269.313 415.825 270.546 416.169 271.872C417.229 274.998 417.662 278.304 417.443 281.598C417.223 284.892 416.357 288.111 414.892 291.07C414.376 292.338 413.585 293.476 412.577 294.402C414.686 290.411 415.931 286.021 416.231 281.517C416.53 277.013 415.877 272.497 414.315 268.262Z" fill="#263238"/>
<path d="M277.955 325.299C277.955 325.299 244.802 347.506 236.089 387.614C229.24 419.141 210.48 585.666 210.48 585.666L177.634 649.623L199.081 700.641C217.455 701.941 235.698 696.725 250.607 685.908L265.042 675.436L291.507 636.171L277.955 325.299Z" fill="#EBEBEB"/>
<path d="M334.168 295.892L277.954 325.298L264.69 368.893L252.866 495.248L275.123 643.383L236.089 767.499L303.405 768L305.005 695.242L311.725 459.737L318.328 309.717L334.168 295.892Z" fill="#EBEBEB"/>
<path d="M306.945 492.208C306.551 491.652 306.201 491.065 305.9 490.454C305.21 489.181 304.279 487.462 303.106 485.297C301.942 483.032 300.814 480.121 299.354 476.807C298.662 475.135 298.096 473.281 297.401 471.35C296.73 469.41 295.977 467.372 295.415 465.162C290.123 447.712 286.622 422.507 287.359 394.709C287.432 392.556 287.514 390.426 287.661 388.307L287.686 387.939L288.03 387.794C291.374 386.389 294.653 385.011 297.869 383.66L297.727 384.679C294.348 381.963 291.073 379.331 287.902 376.782L287.697 376.618L287.687 376.376C287.599 366.823 289.112 357.322 292.163 348.269C294.637 340.044 297.347 332.959 299.716 327.136C302.097 321.316 304.163 316.76 305.641 313.667C306.38 312.12 306.963 310.934 307.377 310.142C307.561 309.726 307.787 309.331 308.052 308.961C307.927 309.398 307.761 309.822 307.558 310.228C307.164 311.137 306.645 312.331 305.995 313.828C304.631 316.968 302.672 321.562 300.39 327.406C298.121 333.252 295.503 340.348 293.113 348.548C290.179 357.496 288.736 366.866 288.843 376.283L288.628 375.877C291.799 378.411 295.081 381.033 298.475 383.744L299.26 384.372L298.333 384.763C295.124 386.117 291.846 387.5 288.5 388.911L288.869 388.4C288.727 390.479 288.645 392.608 288.572 394.746C287.84 422.417 291.188 447.516 296.24 464.925C296.773 467.131 297.494 469.165 298.133 471.104C298.796 473.034 299.33 474.89 299.988 476.564C301.381 479.881 302.439 482.808 303.533 485.094C304.617 487.295 305.477 489.042 306.115 490.336C306.441 490.937 306.718 491.563 306.945 492.208Z" fill="#263238"/>
<path d="M262.841 580.687C262.608 580.095 262.426 579.483 262.298 578.859C261.967 577.539 261.525 575.772 260.97 573.558C260.389 571.256 259.721 568.43 259.073 565.121C258.408 561.816 257.562 558.068 256.897 553.875C256.161 549.693 255.379 545.109 254.749 540.156C253.997 535.219 253.484 529.908 252.887 524.325C251.877 513.144 251.199 500.807 251.187 487.845C251.247 474.88 251.971 462.543 253.023 451.363C253.641 445.783 254.174 440.473 254.944 435.538C255.593 430.587 256.392 426.005 257.144 421.827C257.825 417.636 258.685 413.891 259.361 410.589C260.022 407.283 260.701 404.459 261.29 402.16C261.853 399.947 262.302 398.182 262.637 396.865C262.768 396.242 262.952 395.631 263.187 395.039C263.136 395.674 263.032 396.305 262.875 396.923C262.595 398.253 262.221 400.034 261.751 402.265C261.233 404.578 260.623 407.412 260.026 410.725C259.414 414.034 258.615 417.783 257.99 421.974C257.294 426.152 256.546 430.73 255.942 435.675C255.217 440.603 254.723 445.902 254.137 451.47C253.15 462.623 252.461 474.923 252.402 487.848C252.413 500.769 253.056 513.068 254.001 524.223C254.566 529.792 255.04 535.093 255.747 540.023C256.332 544.969 257.064 549.55 257.744 553.731C258.353 557.924 259.138 561.676 259.738 564.988C260.322 568.304 260.922 571.14 261.431 573.455C261.893 575.69 262.261 577.472 262.536 578.802C262.69 579.421 262.792 580.051 262.841 580.687Z" fill="#263238"/>
<path d="M278.044 694.438C277.371 696.428 276.454 698.327 275.314 700.093C270.258 708.883 263.788 716.78 256.166 723.468C254.66 724.933 252.978 726.206 251.159 727.258C252.526 725.679 254.005 724.202 255.584 722.837C262.802 715.877 269.178 708.093 274.58 699.647C275.608 697.83 276.766 696.089 278.044 694.438Z" fill="#263238"/>
<path d="M536.355 321.696C548.18 326.271 558.698 333.683 566.985 343.278C575.272 352.874 581.074 364.36 583.879 376.724C602.262 457.789 633.73 565.615 634.224 600.402C634.853 644.708 615.48 675.038 590.19 680.63C570.19 685.052 388.903 675.129 388.903 675.129L380.426 607.585L527.227 585.973L507.125 473.651L527.021 318.081L536.355 321.696Z" fill="#EBEBEB"/>
<path d="M527.02 318.081L486.431 301.495L443.638 276.424L443.369 283.757C448.607 292.73 450.415 303.298 448.459 313.503L412.852 499.271L420.93 634.992L437.5 768H566.241L507.125 628.901L527.992 441.464L527.02 318.081Z" fill="#EBEBEB"/>
<path d="M564.622 681.764C564.334 681.831 564.042 681.871 563.747 681.887C563.111 681.948 562.252 682.03 561.155 682.135C558.87 682.385 555.487 682.362 551.118 682.475C542.382 682.517 529.702 682.285 513.927 681.771C482.378 680.716 438.448 678.605 388.868 675.73L388.368 675.701L388.306 675.204C387.294 667.156 386.227 658.669 385.144 650.055C383.319 635.478 381.541 621.266 379.837 607.659L379.765 607.081L380.34 606.997C425.178 600.478 464.381 594.779 492.44 590.7C506.405 588.718 517.594 587.131 525.355 586.03C529.163 585.513 532.127 585.111 534.201 584.829C535.168 584.709 535.926 584.615 536.493 584.545C536.492 584.445 536.529 584.348 536.597 584.275C536.664 584.201 536.757 584.156 536.857 584.148C536.956 584.141 537.055 584.171 537.133 584.234C537.211 584.296 537.262 584.386 537.277 584.484C537.291 584.583 537.268 584.684 537.211 584.766C537.154 584.848 537.068 584.905 536.971 584.926C536.873 584.948 536.771 584.931 536.685 584.88C536.6 584.829 536.536 584.747 536.508 584.651L534.232 585.04C532.165 585.368 529.211 585.837 525.415 586.44L492.551 591.459C464.508 595.642 425.326 601.487 380.512 608.171L381.015 607.511C382.727 621.117 384.515 635.328 386.349 649.903C387.429 658.519 388.493 667.006 389.501 675.054L388.94 674.528C438.509 677.44 482.426 679.697 513.957 680.966C529.722 681.587 542.391 681.942 551.119 682.036C555.477 681.991 558.864 682.085 561.139 681.91C562.237 681.852 563.096 681.806 563.733 681.773C564.028 681.745 564.326 681.742 564.622 681.764Z" fill="#263238"/>
<path d="M505.948 462.302C506.103 462.704 506.209 463.122 506.264 463.549C506.452 464.505 506.686 465.694 506.971 467.146C507.576 470.45 508.398 474.941 509.4 480.415C511.382 491.791 514.068 507.214 517.037 524.257C519.882 541.327 522.456 556.77 524.354 568.161C525.214 573.659 525.919 578.17 526.437 581.489C526.642 582.956 526.809 584.157 526.944 585.122C527.029 585.544 527.061 585.974 527.039 586.403C526.875 586.006 526.762 585.589 526.702 585.164C526.508 584.208 526.267 583.02 525.972 581.568C525.358 578.266 524.524 573.777 523.508 568.306C521.48 557.097 518.762 541.597 515.84 524.461C512.918 507.33 510.346 491.807 508.554 480.558C507.709 475.057 507.015 470.544 506.505 467.223C506.31 465.753 506.15 464.55 506.021 463.582C505.942 463.16 505.917 462.73 505.948 462.302Z" fill="#263238"/>
<path d="M462.307 289.505C462.384 289.646 462.439 289.798 462.47 289.956L462.846 291.313C463.143 292.515 463.666 294.275 464.146 296.595C465.585 303.19 466.62 309.867 467.244 316.588C468.186 326.726 468.444 336.916 468.015 347.089C467.618 358.683 466.39 371.509 464.64 385.095L464.585 385.527L464.156 385.606C459.926 386.391 455.442 387.222 450.887 388.067L451.34 387.249C452.095 389.286 452.881 391.478 453.486 393.745C457.802 409.504 455.906 425.443 451.971 438.777C448.263 450.604 443.022 461.894 436.381 472.36C430.844 481.345 425.833 488.257 422.393 493.038C420.689 495.348 419.348 497.168 418.367 498.498C417.931 499.065 417.577 499.525 417.292 499.897C417.343 499.952 417.371 500.025 417.372 500.1C417.373 500.175 417.346 500.248 417.296 500.304C417.246 500.36 417.177 500.396 417.102 500.404C417.028 500.413 416.953 500.393 416.892 500.35C416.83 500.306 416.788 500.241 416.772 500.168C416.756 500.094 416.767 500.017 416.805 499.952C416.842 499.887 416.902 499.838 416.973 499.814C417.045 499.791 417.122 499.795 417.191 499.825C417.45 499.434 417.771 498.952 418.168 498.355C419.1 496.998 420.38 495.134 422.007 492.764C425.327 487.904 430.225 480.923 435.647 471.914C442.137 461.46 447.262 450.218 450.897 438.462C454.736 425.249 456.552 409.525 452.315 394.067C451.721 391.842 450.95 389.693 450.213 387.694L449.959 387.006L450.667 386.875C455.223 386.036 459.708 385.21 463.939 384.431L463.455 384.941C465.226 371.381 466.5 358.598 466.966 347.048C467.451 336.918 467.283 326.767 466.463 316.658C465.913 309.955 465 303.287 463.73 296.682C463.316 294.353 462.861 292.582 462.633 291.364C462.525 290.811 462.436 290.358 462.363 289.983C462.321 289.827 462.302 289.666 462.307 289.505Z" fill="#263238"/>
<path d="M462.302 480.052V450.416C462.302 450.416 462.687 443.103 456.529 444.643C450.371 446.182 451.526 457.729 451.526 457.729C451.526 457.729 450.371 502.759 453.065 502.374C455.759 501.989 456.794 498.526 456.794 498.526V481.206L462.302 480.052Z" fill="#007BFB"/>
<path d="M487.919 481.898C482.65 482.504 477.343 482.707 472.043 482.505C466.742 482.707 461.434 482.504 456.165 481.898C461.434 481.292 466.742 481.089 472.043 481.291C477.343 481.089 482.65 481.292 487.919 481.898Z" fill="#263238"/>
<path d="M546.561 339.276C545.489 339.773 544.378 340.185 543.241 340.505C540.229 341.592 537.287 342.865 534.434 344.316C525.033 349.153 516.88 356.101 510.613 364.615C508.829 367.014 507.261 369.566 505.93 372.242C504.766 374.773 503.824 377.399 503.112 380.091C501.904 384.679 501.113 389.366 500.749 394.096C500.404 398.14 500.337 401.431 500.31 403.705C500.357 404.886 500.329 406.068 500.226 407.246C499.96 406.088 499.83 404.903 499.838 403.715C499.679 400.489 499.697 397.257 499.893 394.034C500.139 389.232 500.855 384.466 502.031 379.805C502.729 377.037 503.674 374.336 504.853 371.736C506.202 368.983 507.802 366.36 509.632 363.9C515.991 355.227 524.374 348.24 534.051 343.548C536.969 342.147 539.993 340.979 543.095 340.056C544.222 339.682 545.383 339.42 546.561 339.276Z" fill="#263238"/>
<path d="M24 585.667L236.089 664.22L414.871 691.55L202.306 587.924L24 585.667Z" fill="#263238"/>
<path d="M114.767 670.369C113.073 659.039 109.24 648.135 103.473 638.236C102.231 636.37 101.257 634.338 100.579 632.202C100.25 631.128 100.188 629.991 100.397 628.888C100.606 627.785 101.081 626.75 101.78 625.871C104.502 622.907 109.478 624.226 112.822 626.465C119.617 631.412 124.628 638.427 127.104 646.459C129.539 654.439 131.104 662.66 131.773 670.976" fill="#FFBE9D"/>
<path d="M197.428 650.175H186.881C184.32 647.621 181.13 645.788 177.634 644.861C176.334 644.647 175.001 644.786 173.773 645.263C172.546 645.741 171.469 646.54 170.657 647.577C175.371 639.811 180.454 631.26 181.429 628.919C183.327 624.364 179.152 620.947 172.319 620.947C165.487 620.947 135.5 663.461 135.5 663.461C135.5 663.461 154.136 629.266 155.942 624.042C160.456 610.985 146.18 610.012 140.995 616.311C134.561 624.129 108.55 663.461 108.55 663.461C108.55 663.461 103.615 671.432 107.031 679.023C110.447 686.615 120.317 683.578 120.317 683.578C120.457 685.791 121.174 687.929 122.395 689.78C123.616 691.631 125.299 693.131 127.278 694.131C134.894 698.364 144.915 693.456 144.915 693.456L183.707 702.178C183.707 702.178 189.865 701.557 197.748 700.774C207.298 699.824 216.257 695.712 223.204 689.089C230.15 682.467 234.685 673.714 236.089 664.22V664.219L197.428 650.175Z" fill="#FFBE9D"/>
<path d="M171.285 646.989C171.717 647.253 166.561 655.377 159.856 665.112C156.503 669.986 153.4 674.351 151.103 677.474C149.958 679.235 148.642 680.88 147.175 682.383C148.072 680.484 149.151 678.676 150.397 676.985C152.513 673.737 155.504 669.296 158.856 664.424C162.206 659.553 165.282 655.173 167.534 652.022C168.527 650.651 169.418 649.422 170.226 648.307C170.53 647.831 170.885 647.389 171.285 646.989Z" fill="#EB996E"/>
<path d="M168.961 690.267C169.889 688.038 171.042 685.909 172.403 683.914C174.694 680.092 177.964 674.878 181.552 669.115C183.335 666.231 185.059 663.481 186.467 660.94C187.078 659.857 187.469 658.662 187.615 657.427C187.762 656.191 187.662 654.939 187.321 653.742C186.636 651.485 185.51 649.385 184.009 647.565C184.052 647.514 184.655 647.887 185.517 648.824C186.725 650.177 187.623 651.776 188.148 653.512C188.579 654.814 188.74 656.19 188.621 657.557C188.503 658.923 188.107 660.252 187.458 661.46C186.065 664.101 184.374 666.859 182.583 669.756C178.988 675.532 175.604 680.671 173.128 684.374C171.874 686.43 170.481 688.399 168.961 690.267Z" fill="#EB996E"/>
<path d="M189.361 694.131C189.753 692.025 190.448 689.986 191.423 688.079C192.267 686.155 193.196 684.037 194.197 681.755C195.361 679.228 196.313 676.608 197.043 673.924C197.401 672.647 197.477 671.308 197.265 669.999C197.054 668.69 196.56 667.442 195.818 666.344C195.064 665.475 194.115 664.797 193.048 664.368C192.145 663.913 191.163 663.64 190.155 663.562C188.681 663.773 187.262 664.269 185.977 665.021C184.993 665.511 184.421 665.747 184.38 665.672C184.341 665.599 184.825 665.231 185.741 664.612C186.302 664.233 186.883 663.884 187.48 663.565C188.296 663.085 189.207 662.791 190.149 662.704C191.291 662.721 192.416 662.974 193.455 663.447C194.696 663.902 195.807 664.656 196.689 665.641C197.57 666.861 198.166 668.262 198.432 669.743C198.698 671.224 198.628 672.745 198.227 674.195C197.481 676.957 196.474 679.641 195.218 682.212C194.122 684.582 193.069 686.674 192.204 688.437C190.442 691.947 189.523 694.182 189.361 694.131Z" fill="#EB996E"/>
<path d="M196.506 657.417C197.085 657.468 197.647 657.639 198.157 657.917C199.602 658.541 200.963 659.341 202.211 660.299C206.445 663.464 209.405 668.04 210.557 673.198C211.708 678.357 210.974 683.758 208.488 688.422C207.766 689.82 206.873 691.123 205.831 692.302C205.084 693.122 204.603 693.506 204.55 693.456C204.375 693.312 206.101 691.548 207.717 688.044C209.884 683.505 210.467 678.371 209.371 673.463C208.276 668.554 205.566 664.155 201.675 660.969C198.722 658.484 196.41 657.621 196.506 657.417Z" fill="#EB996E"/>
<path d="M128.195 635.115C125.615 640.008 122.68 644.706 119.414 649.171C116.482 653.863 113.211 658.334 109.626 662.549C112.207 657.655 115.142 652.956 118.408 648.491C121.34 643.799 124.611 639.329 128.195 635.115Z" fill="#EB996E"/>
<path d="M379.789 610.123L355.544 604.625L332.259 582.692C329.43 580.028 325.753 578.445 321.874 578.222L279.5 575.782C275.273 575.539 271.115 576.926 267.881 579.658L237.583 605.255L369.728 669.675L387.864 671.278L379.789 610.123Z" fill="#FFBE9D"/>
<path d="M307.959 598.802C307.924 598.996 304.817 598.419 299.795 597.784C294.851 597.239 287.582 596.547 280.607 599.774C277.361 601.343 274.295 603.259 271.462 605.489C268.782 607.5 266.379 609.364 264.255 610.794C262.59 611.945 260.838 612.965 259.015 613.845C258.361 614.206 257.654 614.462 256.921 614.606C256.838 614.422 259.715 613.139 263.758 610.094C265.793 608.592 268.123 606.673 270.784 604.598C273.649 602.263 276.778 600.272 280.107 598.668C283.512 597.132 287.195 596.309 290.929 596.249C293.939 596.194 296.948 596.423 299.915 596.933C302.44 597.345 304.452 597.806 305.836 598.144C306.572 598.26 307.287 598.481 307.959 598.802Z" fill="#EB996E"/>
<path d="M316.649 622.394C316.569 622.587 314.912 621.827 312.077 621.527C308.376 621.205 304.65 621.723 301.178 623.044C297.692 624.42 294.35 626.135 291.2 628.164C289.921 629.092 288.538 629.864 287.078 630.466C288.147 629.295 289.374 628.279 290.725 627.449C293.808 625.16 297.183 623.295 300.762 621.903C304.401 620.502 308.345 620.079 312.199 620.677C313.81 620.836 315.348 621.429 316.649 622.394Z" fill="#EB996E"/>
<path d="M371.187 626.311C368.268 622.817 365.526 619.179 362.971 615.411C360.089 611.886 357.386 608.219 354.871 604.423C361.492 610.759 367.006 618.156 371.187 626.311Z" fill="#EB996E"/>
<path d="M304.458 578.291L358.176 528.257C358.721 527.748 359.15 527.127 359.431 526.437C359.712 525.746 359.839 525.003 359.803 524.258C359.768 523.513 359.57 522.785 359.225 522.124C358.879 521.464 358.394 520.886 357.802 520.432C356.853 519.704 355.678 519.33 354.483 519.376C353.287 519.422 352.145 519.884 351.254 520.683L288.265 577.175" fill="#007BFB"/>
<g opacity="0.3">
<path d="M304.458 578.291L358.176 528.257C358.721 527.748 359.15 527.127 359.431 526.437C359.712 525.746 359.839 525.003 359.803 524.258C359.768 523.513 359.57 522.785 359.225 522.124C358.879 521.464 358.394 520.886 357.802 520.432C356.853 519.704 355.678 519.33 354.483 519.376C353.287 519.422 352.145 519.884 351.254 520.683L288.265 577.175" fill="black"/>
</g>
</svg>
