<?xml version="1.0" encoding="UTF-8"?>
<svg width="82" height="72" viewBox="0 0 82 72" fill="none" xmlns="http://www.w3.org/2000/svg">
<path d="M38.6585 72L32.2307 65.9077C25.6805 60.0615 20.3087 55.0308 16.1153 50.8154C11.922 46.6 8.63158 42.8308 6.24412 39.5077C3.85666 36.1846 2.21911 33.1846 1.33147 30.5077C0.443822 27.8308 0 24.9846 0 21.9692C0 15.8769 2.05077 10.6923 6.1523 6.41539C10.2538 2.13846 15.2736 0 21.2116 0C24.6398 0 27.8384 0.723077 30.8074 2.16923C33.7764 3.61539 36.3934 5.81538 38.6585 8.76923C41.2296 5.75385 43.9384 3.53846 46.785 2.12308C49.6316 0.707693 52.7383 0 56.1053 0C61.3087 0 65.8234 1.8 69.6495 5.4C73.4756 9 75.8477 13.4462 76.766 18.7385H68.1344C67.6446 16.0308 66.3744 13.6462 64.3236 11.5846C62.2729 9.52308 59.5334 8.49231 56.1053 8.49231C53.2893 8.49231 50.5345 9.43077 47.841 11.3077C45.1474 13.1846 43.2803 15.7846 42.2396 19.1077H35.2609C34.0978 15.8462 32.1695 13.2615 29.4759 11.3538C26.7824 9.44615 24.0276 8.49231 21.2116 8.49231C17.4774 8.49231 14.4166 9.76923 12.0291 12.3231C9.64166 14.8769 8.44793 18.0615 8.44793 21.8769C8.44793 24.4 8.90705 26.7846 9.82531 29.0308C10.7436 31.2769 12.3352 33.8462 14.6002 36.7385C16.8652 39.6308 19.9567 43 23.8746 46.8462C27.7925 50.6923 32.7204 55.3846 38.6585 60.9231C40.1889 59.3846 41.505 58.1692 42.6069 57.2769C43.7089 56.3846 44.9944 55.2308 46.4636 53.8154L47.4278 54.8308L49.402 56.9077C50.0754 57.6154 50.7335 58.2615 51.3763 58.8462L52.3404 59.7231C50.81 61.0769 49.4785 62.2615 48.346 63.2769C47.2135 64.2923 45.729 65.6615 43.8925 67.3846L38.6585 72ZM61.7066 55.9385V43.9385H49.7693V35.5385H61.7066V23.5385H70.0627V35.5385H82V43.9385H70.0627V55.9385H61.7066Z" fill="#007BFB"/>
</svg>
