<svg width="263" height="39" viewBox="0 0 263 39" fill="none" xmlns="http://www.w3.org/2000/svg">
<g clip-path="url(#clip0_1_716)">
<path d="M28.7142 9.48799C28.299 8.82908 27.7204 8.2937 27.037 7.93606L17.1306 2.1051C16.3593 1.65267 15.4849 1.41455 14.5951 1.41455C13.7051 1.41455 12.8308 1.65267 12.0595 2.1051L2.15328 7.93606C1.3718 8.39572 0.322376 9.24685 0.239979 10.3182C0.0441659 12.8644 3.26164 14.4591 5.41254 15.6258C9.11829 17.6355 11.5139 18.8007 13.3233 20.6891C13.7245 21.1081 14.3595 21.8446 14.5951 22.4229C14.8308 21.8446 15.4655 21.1081 15.8669 20.6891C17.6762 18.8007 20.0718 17.6355 23.7775 15.6258C25.8957 14.477 29.0095 13.0174 28.9503 10.3204C28.933 10.0285 28.8523 9.74421 28.7142 9.48799ZM14.5951 16.5617C13.9741 16.5617 13.3671 16.3739 12.8508 16.0222C12.3346 15.6705 11.9322 15.1705 11.6945 14.5856C11.457 14.0008 11.3949 13.3572 11.516 12.7364C11.6372 12.1155 11.9362 11.5453 12.3753 11.0976C12.8143 10.65 13.3738 10.3451 13.9828 10.2217C14.5918 10.0982 15.2231 10.1616 15.7967 10.4038C16.3705 10.6461 16.8607 11.0563 17.2057 11.5827C17.5507 12.1091 17.7348 12.7279 17.7348 13.361C17.7348 13.7813 17.6536 14.1976 17.4958 14.5858C17.338 14.9742 17.1067 15.327 16.8151 15.6243C16.5236 15.9215 16.1775 16.1573 15.7965 16.3181C15.4157 16.479 15.0074 16.5617 14.5951 16.5617Z" fill="url(#paint0_linear_1_716)"/>
<path d="M23.7901 17.3081C19.3854 19.6931 16.2948 20.8059 15.094 24.6612C14.8784 25.2799 14.7099 25.9146 14.5901 26.5597C14.4702 25.918 14.3024 25.2867 14.088 24.6711C12.8871 20.8158 9.79667 19.703 5.3919 17.318C0.822099 14.8438 -0.151963 13.6045 -0.324219 13.0811V24.0771C-0.32297 24.9831 -0.088436 25.8729 0.355925 26.6575C0.800295 27.4422 1.43893 28.0942 2.20797 28.5483L12.1008 34.3715C12.4276 34.5727 12.7754 34.7366 13.1375 34.8599C13.0179 34.4261 12.8763 33.9677 12.7054 33.4797C9.6152 24.6468 4.14404 22.4754 4.14404 22.4754C4.14404 22.4754 6.69254 22.6837 10.333 26.5179C12.0978 28.3762 13.4827 30.6002 14.5885 32.9165C14.5885 32.9165 17.0185 28.4354 18.8491 26.508C22.4894 22.6739 25.038 22.4655 25.038 22.4655C25.038 22.4655 19.5668 24.6369 16.4766 33.4698C16.3057 33.9578 16.1641 34.4162 16.0445 34.8501C16.4066 34.7267 16.7544 34.5629 17.0812 34.3616L26.9741 28.5384C27.743 28.0844 28.3817 27.4324 28.8261 26.6477C29.2705 25.8631 29.5049 24.9733 29.5062 24.0672V13.0713C29.334 13.5946 28.3599 14.8339 23.7901 17.3081Z" fill="url(#paint1_linear_1_716)"/>
<path d="M37.7324 30.9361V7.27466H53.4989V12.1809H42.8744V30.9361H37.7324Z" fill="#007BFB"/>
<path d="M54.1001 37.6864V13.8858H58.8675V15.904C59.367 15.2081 60.048 14.6397 60.9106 14.1989C61.7734 13.7582 62.7609 13.5378 63.8732 13.5378C64.8721 13.5378 65.7915 13.7234 66.6315 14.0946C67.4942 14.4658 68.232 15.0225 68.845 15.7648C69.4806 16.484 69.98 17.3886 70.3432 18.4789C70.7065 19.5692 70.8881 20.8335 70.8881 22.2717C70.8881 23.7563 70.6952 25.067 70.3093 26.2036C69.9233 27.3172 69.3898 28.2566 68.7088 29.0222C68.0277 29.7645 67.2218 30.3328 66.291 30.7271C65.3602 31.0984 64.3613 31.284 63.2943 31.284C62.3862 31.284 61.5576 31.1563 60.8085 30.9011C60.082 30.6228 59.4691 30.24 58.9697 29.7528V37.6864H54.1001ZM58.9697 23.768C58.9697 24.7423 59.2875 25.5426 59.9232 26.1689C60.5588 26.7952 61.4101 27.1083 62.4771 27.1083C63.5668 27.1083 64.4181 26.7024 65.0311 25.8905C65.6667 25.0554 65.9846 23.884 65.9846 22.3761C65.9846 20.9146 65.6667 19.7779 65.0311 18.966C64.4181 18.131 63.5668 17.7134 62.4771 17.7134C61.4328 17.7134 60.5815 18.0381 59.9232 18.6877C59.2875 19.3372 58.9697 20.1955 58.9697 21.2626V23.768Z" fill="#007BFB"/>
<path d="M83.145 30.936V29.0222C82.6228 29.7645 81.9418 30.3328 81.1018 30.7271C80.2618 31.0984 79.331 31.284 78.3094 31.284C76.7204 31.284 75.381 30.8431 74.2913 29.9617C73.2015 29.0802 72.6567 27.8275 72.6567 26.2036C72.6567 24.4174 73.2129 23.13 74.3253 22.3412C75.4603 21.5294 76.9814 21.0538 78.8884 20.9146C79.6375 20.8682 80.3526 20.8451 81.0337 20.8451C81.7374 20.8451 82.3731 20.8566 82.9406 20.8798V19.662C82.9406 18.8964 82.7136 18.3397 82.2596 17.9917C81.8056 17.6206 81.1699 17.435 80.3526 17.435C79.6262 17.435 79.0246 17.6206 78.5479 17.9917C78.0938 18.3397 77.7873 18.908 77.6284 19.6968L73.2015 19.0009C73.4513 17.4466 74.1891 16.1475 75.415 15.1037C76.6409 14.0598 78.3094 13.5378 80.4208 13.5378C81.4424 13.5378 82.3958 13.6422 83.2812 13.851C84.1666 14.0598 84.927 14.4078 85.5627 14.8949C86.2211 15.3588 86.7318 15.9968 87.0951 16.8087C87.481 17.6206 87.674 18.618 87.674 19.8012V30.936H83.145ZM82.9406 24.0115C82.5093 23.9883 82.0098 23.9767 81.4424 23.9767C80.8748 23.9767 80.3299 23.9883 79.8078 24.0115C79.1268 24.0579 78.5592 24.2318 78.1052 24.5334C77.6511 24.8118 77.4241 25.241 77.4241 25.8209C77.4241 26.4009 77.6284 26.8532 78.0371 27.1779C78.4684 27.4795 79.0246 27.6303 79.7056 27.6303C80.6818 27.6303 81.4651 27.3983 82.0552 26.9343C82.6455 26.4704 82.9406 25.8557 82.9406 25.0902V24.0115Z" fill="#007BFB"/>
<path d="M91.0142 30.9362V13.886H95.8837V20.0449H101.843V13.886H106.712V30.9362H101.843V24.3596H95.8837V30.9362H91.0142Z" fill="#007BFB"/>
<path d="M108.312 26.5865H110.084C110.583 26.1691 110.98 25.6239 111.276 24.9512C111.57 24.2552 111.741 23.4433 111.786 22.5154C111.832 21.5643 111.865 20.3697 111.888 18.9314C111.911 17.4932 111.934 15.8113 111.957 13.886H125.611V26.5865H128.063V35.5988H123.296V30.9362H113.08V35.5988H108.312V26.5865ZM116.282 22.7242C116.259 23.5593 116.134 24.3016 115.907 24.9512C115.68 25.5775 115.407 26.1227 115.089 26.5865H120.742V18.2355H116.349C116.349 19.0242 116.338 19.8477 116.315 20.706C116.315 21.5411 116.304 22.2139 116.282 22.7242Z" fill="#007BFB"/>
<path d="M139.359 23.5246H129.177V19.175H139.359V23.5246Z" fill="#007BFB"/>
<path d="M153.483 28.744L147.489 14.4774V30.9361H142.688V7.27466H149.703L155.9 22.4459L162.065 7.27466H168.943V30.9361H163.937V14.3035L157.944 28.744H153.483Z" fill="#007BFB"/>
<path d="M187.737 23.4895H176.5C176.591 24.8118 176.954 25.7977 177.59 26.4472C178.225 27.0968 179.065 27.4215 180.11 27.4215C181.109 27.4215 181.846 27.1896 182.323 26.7256C182.822 26.2385 183.151 25.7513 183.311 25.2641L187.635 26.0993C187.476 26.7488 187.204 27.3867 186.818 28.0131C186.455 28.6394 185.967 29.1961 185.354 29.6832C184.741 30.1472 183.992 30.53 183.106 30.8315C182.244 31.1331 181.234 31.284 180.075 31.284C177.487 31.284 175.456 30.4952 173.98 28.9178C172.527 27.3403 171.801 25.1714 171.801 22.4108C171.801 20.9495 172.017 19.662 172.448 18.5485C172.879 17.435 173.458 16.5071 174.184 15.7648C174.934 15.0225 175.808 14.4658 176.807 14.0946C177.806 13.7234 178.872 13.5378 180.008 13.5378C182.55 13.5378 184.468 14.3498 185.763 15.9735C187.079 17.5974 187.737 19.7199 187.737 22.3412V23.4895ZM180.008 17.4003C179.19 17.4003 178.475 17.6438 177.862 18.131C177.25 18.5949 176.829 19.3604 176.602 20.4275H183.14C183.049 19.43 182.731 18.676 182.187 18.1657C181.642 17.6554 180.916 17.4003 180.008 17.4003Z" fill="#007BFB"/>
<path d="M188.027 26.5865H189.797C190.297 26.1691 190.694 25.6239 190.99 24.9512C191.285 24.2552 191.455 23.4433 191.5 22.5154C191.546 21.5643 191.58 20.3697 191.603 18.9314C191.625 17.4932 191.648 15.8113 191.67 13.886H205.326V26.5865H207.778V35.5988H203.01V30.9362H192.794V35.5988H188.027V26.5865ZM195.995 22.7242C195.973 23.5593 195.848 24.3016 195.621 24.9512C195.394 25.5775 195.121 26.1227 194.803 26.5865H200.456V18.2355H196.064C196.064 19.0242 196.052 19.8477 196.029 20.706C196.029 21.5411 196.018 22.2139 195.995 22.7242Z" fill="#007BFB"/>
<path d="M214.306 30.9362H209.505V13.886H214.238V24.3249L220.435 13.886H225.441V30.9362H220.708V20.3928L214.306 30.9362Z" fill="#007BFB"/>
<path d="M228.876 30.9362V13.886H233.745V20.2188H235.687L239.535 13.886H244.881L239.807 21.8543L245.153 30.9362H239.704L235.687 24.0465H233.745V30.9362H228.876Z" fill="#007BFB"/>
<path d="M256.192 30.936V29.0222C255.669 29.7645 254.988 30.3328 254.149 30.7271C253.309 31.0984 252.378 31.284 251.356 31.284C249.767 31.284 248.428 30.8431 247.338 29.9617C246.248 29.0802 245.703 27.8275 245.703 26.2036C245.703 24.4174 246.259 23.13 247.372 22.3412C248.507 21.5294 250.028 21.0538 251.935 20.9146C252.684 20.8682 253.4 20.8451 254.081 20.8451C254.784 20.8451 255.419 20.8566 255.987 20.8798V19.662C255.987 18.8964 255.76 18.3397 255.306 17.9917C254.853 17.6206 254.216 17.435 253.4 17.435C252.673 17.435 252.072 17.6206 251.595 17.9917C251.14 18.3397 250.834 18.908 250.675 19.6968L246.248 19.0009C246.498 17.4466 247.235 16.1475 248.461 15.1037C249.687 14.0598 251.356 13.5378 253.467 13.5378C254.489 13.5378 255.442 13.6422 256.328 13.851C257.213 14.0598 257.973 14.4078 258.61 14.8949C259.268 15.3588 259.778 15.9968 260.142 16.8087C260.527 17.6206 260.721 18.618 260.721 19.8012V30.936H256.192ZM255.987 24.0115C255.556 23.9883 255.057 23.9767 254.489 23.9767C253.921 23.9767 253.377 23.9883 252.855 24.0115C252.174 24.0579 251.606 24.2318 251.152 24.5334C250.698 24.8118 250.471 25.241 250.471 25.8209C250.471 26.4009 250.675 26.8532 251.084 27.1779C251.515 27.4795 252.072 27.6303 252.753 27.6303C253.729 27.6303 254.512 27.3983 255.102 26.9343C255.692 26.4704 255.987 25.8557 255.987 25.0902V24.0115Z" fill="#007BFB"/>
</g>
<defs>
<linearGradient id="paint0_linear_1_716" x1="0.231446" y1="11.9188" x2="28.9512" y2="11.9188" gradientUnits="userSpaceOnUse">
<stop stop-color="#007BFB"/>
<stop offset="1" stop-color="#26E0F5"/>
</linearGradient>
<linearGradient id="paint1_linear_1_716" x1="18.0853" y1="8.25202" x2="8.21743" y2="37.4263" gradientUnits="userSpaceOnUse">
<stop stop-color="#39B54A"/>
<stop offset="1" stop-color="#ACDF23"/>
</linearGradient>
<clipPath id="clip0_1_716">
<rect width="263" height="39" fill="white"/>
</clipPath>
</defs>
</svg>
