<svg width="178" height="157" viewBox="0 0 178 157" fill="none" xmlns="http://www.w3.org/2000/svg">
<path d="M172.697 62.0653C171.89 41.4745 156.271 21.021 135.762 19.281C123.648 18.2536 111.596 23.6223 102.571 31.7806C99.3842 34.5265 96.4091 37.5098 93.6715 40.705C92.2593 36.7407 90.5495 32.8891 88.5567 29.1833C83.051 18.332 73.7205 9.00048 62.042 5.61877C42.2709 -0.106331 20.3673 13.393 12.2428 32.3288C4.11842 51.2645 7.67111 73.5925 16.8519 92.0338C26.0327 110.475 42.4573 134.955 75.3127 149.185C98.8786 148.159 131.848 130.086 147.021 116.158C162.194 102.23 173.504 82.656 172.697 62.0653Z" fill="#007BFB"/>
<path d="M162.226 98.0631C161.998 98.0768 161.77 98.0589 161.547 98.01L159.58 97.7156C157.746 97.4077 155.227 96.9852 152.04 96.4503C145.388 95.2701 135.961 93.5974 124.359 91.539L124.887 91.2724C120.785 99.7679 115.981 109.717 110.712 120.627L109.857 122.397L109.559 120.451C107.257 105.432 104.678 88.6024 101.96 70.8691C101.128 65.3802 100.309 59.9776 99.509 54.7043L100.67 55.0383C92.2101 64.8351 84.2054 74.1045 76.9111 82.5515L76.6826 82.8161L76.3432 82.7513C56.4711 78.965 39.6971 75.7685 27.7631 73.4946C21.948 72.3429 17.3175 71.426 14.0203 70.7735C12.5121 70.454 11.3109 70.1999 10.3918 70.0051C9.96975 69.9378 9.55553 69.8276 9.15565 69.6765C9.58309 69.6787 10.0092 69.7243 10.4275 69.8127C11.3551 69.961 12.5673 70.154 14.09 70.3971C17.4018 70.97 22.053 71.7741 27.8945 72.7846C39.8502 74.9407 56.6547 77.9718 76.5632 81.5624L75.996 81.762C83.2622 73.2904 91.2355 63.9942 99.6624 54.1693L100.605 53.0698L100.824 54.5035C101.627 59.7767 102.451 65.1787 103.287 70.667C105.962 88.4069 108.501 105.242 110.766 120.267L109.614 120.09C114.964 109.22 119.843 99.3076 124.008 90.8429L124.174 90.5058L124.537 90.576C136.106 92.8144 145.506 94.6335 152.139 95.9167C155.306 96.5602 157.809 97.0688 159.631 97.4389C160.417 97.6132 161.055 97.7545 161.573 97.8695C161.798 97.9039 162.018 97.969 162.226 98.0631Z" fill="#FAFAFA"/>
</svg>
