<svg width="2046" height="300" viewBox="0 0 2046 300" fill="none" xmlns="http://www.w3.org/2000/svg">
<mask id="mask0_108_149" style="mask-type:alpha" maskUnits="userSpaceOnUse" x="0" y="0" width="2046" height="300">
<rect width="2046" height="300" fill="#007BFB"/>
</mask>
<g mask="url(#mask0_108_149)">
<path d="M587.828 1409.94C146.874 1140.26 17.7666 598.143 4.74174 104.622C2.56087 22.2469 -11.7196 -63.8795 23.0791 -138.378C57.9071 -212.853 146.293 -267.661 222.103 -237.463C284.982 -212.408 315.917 -142.996 353.672 -86.3265C404.101 -10.7488 474.895 49.0577 557.891 86.1965C611.961 110.201 677.828 122.903 727.86 91.2837C796.508 47.8773 798.959 -50.5942 793.51 -132.343C783.337 -284.687 773.173 -437.019 763.019 -589.342C757.566 -671.067 752.283 -754.543 773.055 -833.682C793.83 -912.819 845.753 -988.299 922.322 -1014.79C998.921 -1041.26 1097.95 -1002.22 1119.23 -923.18C1128.09 -890.289 1123.39 -855.302 1127.71 -821.508C1132.04 -787.696 1150.14 -751.099 1183 -743.589C1216.26 -735.97 1247.63 -761.127 1270.65 -786.535C1350.19 -874.184 1401.11 -983.993 1448.31 -1092.99C1495.52 -1201.99 1541 -1313.4 1612.25 -1408.07C1683.49 -1502.73 1785.25 -1580.48 1902.12 -1594.19C2019 -1607.88 2148.31 -1543.13 2184.89 -1429.96C2221.57 -1316.48 2161.29 -1195.46 2093.64 -1097.74C1993.3 -952.762 1872.49 -823.032 1734.97 -712.574C1710.27 -692.722 1683.48 -671.268 1675.45 -640.388C1660.95 -584.802 1715.95 -533.782 1770.93 -519.111C1833.2 -502.489 1899.04 -512.81 1963.34 -509.151C2027.64 -505.493 2098.51 -481.542 2126.3 -422.739C2164.89 -341.187 2100.19 -249.368 2034.79 -187.845C1903.76 -64.6047 1752.46 35.1984 1587.53 107.194C1528.63 132.83 1466.4 155.962 1420.38 201.142C1374.36 246.349 1349.49 321.592 1382.31 377.407C1415.16 433.301 1491.6 447.191 1553.99 431.689C1616.35 416.219 1670.78 378.601 1729.53 352.328C1839.5 303.135 1985.28 302.122 2063.24 394.891C2114.46 455.872 2124.01 544.507 2104.64 622.042C2085.3 699.578 2040.66 768.047 1992.72 831.602C1825.13 1053.76 1604.53 1237.78 1348.94 1343.9C1093.38 1450.01 852.978 1489.05 587.828 1409.94Z" fill="#016FE1"/>
<path d="M695.53 1089.15C761.025 816.534 842.141 547.905 938.479 284.587C963.642 214.491 988.486 145.282 1013.01 76.9579C1037.63 8.87329 1062.03 -58.6593 1089.99 -123.225C1143.91 -247.106 1204.66 -367.908 1271.95 -485.075C1335.4 -597.377 1399.71 -701.632 1460.54 -798.672C1521.62 -895.63 1580.24 -984.925 1637.16 -1064.03C1726.34 -1189.34 1825.35 -1307.37 1933.25 -1417.01C1971.34 -1455.81 2001.87 -1484.94 2022.84 -1504.4C2032.94 -1513.64 2040.85 -1520.92 2046.82 -1526.38C2049.43 -1529 2052.28 -1531.38 2055.33 -1533.48C2053.12 -1530.5 2050.62 -1527.75 2047.88 -1525.25C2042.17 -1519.51 2034.57 -1511.89 2024.93 -1502.18C2004.68 -1482.01 1974.82 -1452.24 1937.41 -1412.87C1831.46 -1301.93 1733.98 -1183.22 1645.78 -1057.73C1589.58 -978.453 1531.6 -889.033 1471.09 -791.924C1410.76 -694.649 1346.94 -590.318 1283.96 -478.119C1217.29 -361.215 1157.06 -240.762 1103.53 -117.298C1075.81 -53.0441 1051.69 13.913 1027.06 82.1815C1002.59 150.414 977.778 219.594 952.632 289.723C856.51 552.518 775.173 820.476 709.003 1092.34" fill="#2791FF"/>
</g>
</svg>
